# xmcd
#
# Track frame offsets: 
#        150
#        13425
#        35077
#        44997
#        65507
#        86590
#        92492
#        112552
#        118785
#        140332
#        145840
#        168475
#        177942
#        203337
#
# Disc length: 3130 seconds
#
# Revision: 2
# Processed by: cddbd v1.5.2PL0 Copyright (c) Steve Scherf et al.
# Submitted via: ExactAudioCopyFreeDBPlugin 1.0
#
DISCID=c20c380e
DTITLE=横山菁児 - 聖闘士星矢印象專輯 Saint.Seiya [Image.Ablum.-.冥王ハーデス篇]
DYEAR=1990
DGENRE=Anime
TTITLE0=序曲
TTITLE1=108の魔星
TTITLE2=間奏曲 I
TTITLE3=影山ヒロノブ - Dead or Dead ～愛さえも棄て～
TTITLE4=沙羅双樹
TTITLE5=間奏曲 II
TTITLE6=若き聖闘士たちよ
TTITLE7=間奏曲 III
TTITLE8=パンドーラの箱
TTITLE9=間奏曲 IV
TTITLE10=エリシオン
TTITLE11=間奏曲 V
TTITLE12=グレイテスト・エクリップス
TTITLE13=堀江美都子 - Shine on ～永遠の夢～
EXTD=YEAR: 1990
EXTT0=
EXTT1=
EXTT2=
EXTT3=
EXTT4=
EXTT5=
EXTT6=
EXTT7=
EXTT8=
EXTT9=
EXTT10=
EXTT11=
EXTT12=
EXTT13=
PLAYORDER=
